<svg width="23" height="21" viewBox="0 0 23 21" fill="none" xmlns="http://www.w3.org/2000/svg">
<path fill-rule="evenodd" clip-rule="evenodd" d="M19.7547 0C18.894 0 18.0685 0.312183 17.4599 0.867872L7.58257 9.88631C7.44932 10.008 7.35479 10.1604 7.30909 10.3273L6.26937 14.1246C6.18079 14.4481 6.28461 14.7903 6.54285 15.0261C6.8011 15.2619 7.17591 15.3567 7.53022 15.2758L11.6891 14.3265C11.8719 14.2847 12.0389 14.1984 12.1721 14.0768L22.0495 5.05833C22.6581 4.50264 23 3.74896 23 2.9631C23 2.17724 22.6581 1.42356 22.0495 0.867872C21.4409 0.312183 20.6154 0 19.7547 0ZM18.9303 2.2104C19.149 2.01077 19.4455 1.89862 19.7547 1.89862C20.0639 1.89862 20.3604 2.01077 20.5791 2.2104C20.7977 2.41003 20.9206 2.68078 20.9206 2.9631C20.9206 3.24542 20.7977 3.51617 20.5791 3.7158L10.9054 12.5483L8.70701 13.0501L9.2566 11.0429L18.9303 2.2104Z" fill="#EB8A4B" fill-opacity="0.92"/>
<path d="M3.11916 2.01381C2.29191 2.01381 1.49854 2.31386 0.913582 2.84795C0.328625 3.38204 0 4.10642 0 4.86174V18.1521C0 18.9074 0.328625 19.6318 0.913582 20.1659C1.49854 20.7 2.29191 21 3.11916 21H17.6753C18.5025 21 19.2959 20.7 19.8808 20.1659C20.4658 19.6318 20.7944 18.9074 20.7944 18.1521V11.5069C20.7944 10.9826 20.3289 10.5576 19.7547 10.5576C19.1805 10.5576 18.715 10.9826 18.715 11.5069V18.1521C18.715 18.4038 18.6054 18.6453 18.4104 18.8233C18.2155 19.0014 17.951 19.1014 17.6753 19.1014H3.11916C2.84341 19.1014 2.57895 19.0014 2.38397 18.8233C2.18898 18.6453 2.07944 18.4038 2.07944 18.1521V4.86174C2.07944 4.60996 2.18898 4.3685 2.38397 4.19047C2.57895 4.01244 2.84341 3.91243 3.11916 3.91243H10.3972C10.9714 3.91243 11.4369 3.48741 11.4369 2.96312C11.4369 2.43883 10.9714 2.01381 10.3972 2.01381H3.11916Z" fill="#EB8A4B" fill-opacity="0.92"/>
</svg>
