<svg width="16" height="16" viewBox="0 0 16 16" fill="none" xmlns="http://www.w3.org/2000/svg">
<path d="M3.33334 1.33337C2.80291 1.33337 2.2942 1.54409 1.91913 1.91916C1.54406 2.29423 1.33334 2.80294 1.33334 3.33337V5.33337C1.33334 5.70156 1.63182 6.00004 2.00001 6.00004C2.3682 6.00004 2.66668 5.70156 2.66668 5.33337V3.33337C2.66668 3.15656 2.73691 2.98699 2.86194 2.86197C2.98696 2.73695 3.15653 2.66671 3.33334 2.66671H5.33334C5.70153 2.66671 6.00001 2.36823 6.00001 2.00004C6.00001 1.63185 5.70153 1.33337 5.33334 1.33337H3.33334Z" fill="#EB8A4B"/>
<path d="M10.6667 1.33337C10.2985 1.33337 10 1.63185 10 2.00004C10 2.36823 10.2985 2.66671 10.6667 2.66671H12.6667C12.8435 2.66671 13.0131 2.73695 13.1381 2.86197C13.2631 2.98699 13.3333 3.15656 13.3333 3.33337V5.33337C13.3333 5.70156 13.6318 6.00004 14 6.00004C14.3682 6.00004 14.6667 5.70156 14.6667 5.33337V3.33337C14.6667 2.80294 14.456 2.29423 14.0809 1.91916C13.7058 1.54409 13.1971 1.33337 12.6667 1.33337H10.6667Z" fill="#EB8A4B"/>
<path d="M2.66668 10.6667C2.66668 10.2985 2.3682 10 2.00001 10C1.63182 10 1.33334 10.2985 1.33334 10.6667V12.6667C1.33334 13.1971 1.54406 13.7058 1.91913 14.0809C2.2942 14.456 2.80291 14.6667 3.33334 14.6667H5.33334C5.70153 14.6667 6.00001 14.3682 6.00001 14C6.00001 13.6319 5.70153 13.3334 5.33334 13.3334H3.33334C3.15653 13.3334 2.98696 13.2631 2.86194 13.1381C2.73691 13.0131 2.66668 12.8435 2.66668 12.6667V10.6667Z" fill="#EB8A4B"/>
<path d="M14.6667 10.6667C14.6667 10.2985 14.3682 10 14 10C13.6318 10 13.3333 10.2985 13.3333 10.6667V12.6667C13.3333 12.8435 13.2631 13.0131 13.1381 13.1381C13.0131 13.2631 12.8435 13.3334 12.6667 13.3334H10.6667C10.2985 13.3334 10 13.6319 10 14C10 14.3682 10.2985 14.6667 10.6667 14.6667H12.6667C13.1971 14.6667 13.7058 14.456 14.0809 14.0809C14.456 13.7058 14.6667 13.1971 14.6667 12.6667V10.6667Z" fill="#EB8A4B"/>
</svg>
