<svg width="78" height="78" viewBox="0 0 78 78" fill="none" xmlns="http://www.w3.org/2000/svg">
<g clip-path="url(#clip0_535_3209)">
<path fill-rule="evenodd" clip-rule="evenodd" d="M3.25 0C1.45507 0 0 1.45507 0 3.25C0 5.04493 1.45507 6.5 3.25 6.5H13.586L16.2888 20.004C16.3032 20.0965 16.3215 20.1877 16.3436 20.2774L21.7723 47.4007C22.2185 49.644 23.4398 51.6618 25.2216 53.0961C26.9952 54.5239 29.2122 55.2856 31.4881 55.25H63.0219C65.2978 55.2856 67.5148 54.5239 69.2884 53.0961C71.0709 51.6612 72.2919 49.6451 72.7377 47.4007L72.7425 47.3763L77.9425 20.1088C78.1239 19.1574 77.8715 18.1746 77.2541 17.4283C76.6367 16.682 75.7186 16.25 74.75 16.25H22.1664L19.4368 2.61216C19.1328 1.09325 17.799 0 16.25 0H3.25ZM23.4674 22.75H70.8216L66.3602 46.1448C66.2099 46.8887 65.8039 47.5568 65.2125 48.0328C64.6184 48.5111 63.8749 48.7652 63.1123 48.7506L63.05 48.75H31.46L31.3977 48.7506C30.6351 48.7652 29.8916 48.5111 29.2975 48.0328C28.7033 47.5545 28.2963 46.8825 28.1477 46.1343L23.4674 22.75Z" fill="#FF6400"/>
<path d="M22.75 68.25C22.75 64.6601 25.6601 61.75 29.25 61.75C32.8399 61.75 35.75 64.6601 35.75 68.25C35.75 71.8398 32.8399 74.75 29.25 74.75C25.6601 74.75 22.75 71.8398 22.75 68.25Z" fill="#FF6400"/>
<path d="M58.5 68.25C58.5 64.6601 61.4101 61.75 65 61.75C68.5898 61.75 71.5 64.6601 71.5 68.25C71.5 71.8398 68.5898 74.75 65 74.75C61.4101 74.75 58.5 71.8398 58.5 68.25Z" fill="#FF6400"/>
</g>
<defs>
<clipPath id="clip0_535_3209">
<rect width="78" height="78" fill="white"/>
</clipPath>
</defs>
</svg>
