<svg width="45" height="45" viewBox="0 0 45 45" fill="none" xmlns="http://www.w3.org/2000/svg">
<path fill-rule="evenodd" clip-rule="evenodd" d="M5.625 3.75C4.58947 3.75 3.75 4.58947 3.75 5.625V18.75C3.75 19.7855 4.58947 20.625 5.625 20.625H18.75C19.7855 20.625 20.625 19.7855 20.625 18.75V5.625C20.625 4.58947 19.7855 3.75 18.75 3.75H5.625ZM7.5 16.875V7.5H16.875V16.875H7.5Z" fill="black"/>
<path fill-rule="evenodd" clip-rule="evenodd" d="M26.25 3.75C25.2145 3.75 24.375 4.58947 24.375 5.625V18.75C24.375 19.7855 25.2145 20.625 26.25 20.625H39.375C40.4105 20.625 41.25 19.7855 41.25 18.75V5.625C41.25 4.58947 40.4105 3.75 39.375 3.75H26.25ZM28.125 16.875V7.5H37.5V16.875H28.125Z" fill="black"/>
<path fill-rule="evenodd" clip-rule="evenodd" d="M24.375 26.25C24.375 25.2145 25.2145 24.375 26.25 24.375H39.375C40.4105 24.375 41.25 25.2145 41.25 26.25V39.375C41.25 40.4105 40.4105 41.25 39.375 41.25H26.25C25.2145 41.25 24.375 40.4105 24.375 39.375V26.25ZM28.125 28.125V37.5H37.5V28.125H28.125Z" fill="black"/>
<path fill-rule="evenodd" clip-rule="evenodd" d="M5.625 24.375C4.58947 24.375 3.75 25.2145 3.75 26.25V39.375C3.75 40.4105 4.58947 41.25 5.625 41.25H18.75C19.7855 41.25 20.625 40.4105 20.625 39.375V26.25C20.625 25.2145 19.7855 24.375 18.75 24.375H5.625ZM7.5 37.5V28.125H16.875V37.5H7.5Z" fill="black"/>
</svg>
