<svg width="47" height="48" viewBox="0 0 47 48" fill="none" xmlns="http://www.w3.org/2000/svg">
<path fill-rule="evenodd" clip-rule="evenodd" d="M13.708 4C12.1499 4 10.6555 4.63214 9.55376 5.75736C8.45198 6.88258 7.83301 8.4087 7.83301 10V42C7.83301 42.7492 8.24298 43.4355 8.89524 43.7783C9.54751 44.1211 10.3327 44.0629 10.9296 43.6275L23.4997 34.4578L36.0698 43.6275C36.6667 44.0629 37.4518 44.1211 38.1041 43.7783C38.7564 43.4355 39.1663 42.7492 39.1663 42V10C39.1663 8.4087 38.5474 6.88258 37.4456 5.75736C36.3438 4.63214 34.8495 4 33.2913 4H13.708ZM12.3233 8.58579C12.6905 8.21071 13.1886 8 13.708 8H33.2913C33.8107 8 34.3088 8.21071 34.6761 8.58579C35.0433 8.96086 35.2497 9.46957 35.2497 10V38.1136L24.6379 30.3725C23.957 29.8758 23.0423 29.8758 22.3614 30.3725L11.7497 38.1136V10C11.7497 9.46957 11.956 8.96086 12.3233 8.58579Z" fill="#2D3648"/>
</svg>
