<svg width="63" height="63" viewBox="0 0 63 63" fill="none" xmlns="http://www.w3.org/2000/svg">
<path fill-rule="evenodd" clip-rule="evenodd" d="M23.625 5.25C16.3763 5.25 10.5 11.1263 10.5 18.375C10.5 25.6237 16.3763 31.5 23.625 31.5C30.8737 31.5 36.75 25.6237 36.75 18.375C36.75 11.1263 30.8737 5.25 23.625 5.25ZM15.75 18.375C15.75 14.0258 19.2758 10.5 23.625 10.5C27.9742 10.5 31.5 14.0258 31.5 18.375C31.5 22.7242 27.9742 26.25 23.625 26.25C19.2758 26.25 15.75 22.7242 15.75 18.375Z" fill="#FF6400"/>
<path d="M13.125 36.75C9.64403 36.75 6.30564 38.1328 3.84422 40.5942C1.38281 43.0556 0 46.394 0 49.875V55.125C0 56.5747 1.17525 57.75 2.625 57.75C4.07475 57.75 5.25 56.5747 5.25 55.125V49.875C5.25 47.7864 6.07969 45.7834 7.55653 44.3065C9.03338 42.8297 11.0364 42 13.125 42H34.125C36.2136 42 38.2166 42.8297 39.6935 44.3065C41.1703 45.7834 42 47.7864 42 49.875V55.125C42 56.5747 43.1753 57.75 44.625 57.75C46.0747 57.75 47.25 56.5747 47.25 55.125V49.875C47.25 46.394 45.8672 43.0556 43.4058 40.5942C40.9444 38.1328 37.606 36.75 34.125 36.75H13.125Z" fill="#FF6400"/>
<path d="M49.9584 39.06C50.3208 37.6563 51.7525 36.8122 53.1562 37.1746C55.972 37.9016 58.4665 39.5432 60.2482 41.8416C62.0299 44.14 62.9978 46.965 63 49.8731V55.125C63 56.5748 61.8247 57.75 60.375 57.75C58.9253 57.75 57.75 56.5748 57.75 55.125V49.877C57.7485 48.1324 57.1678 46.4369 56.0989 45.0581C55.0299 43.6791 53.5332 42.6941 51.8438 42.2579C50.44 41.8955 49.5959 40.4637 49.9584 39.06Z" fill="#FF6400"/>
<path d="M42.6511 5.67329C41.2467 5.3137 39.8166 6.16072 39.457 7.56516C39.0974 8.9696 39.9445 10.3996 41.3489 10.7592C43.0428 11.1929 44.5443 12.1781 45.6164 13.5594C46.6886 14.9407 47.2706 16.6396 47.2706 18.3881C47.2706 20.1367 46.6886 21.8356 45.6164 23.2169C44.5443 24.5982 43.0428 25.5833 41.3489 26.017C39.9445 26.3766 39.0974 27.8067 39.457 29.2111C39.8166 30.6156 41.2467 31.4626 42.6511 31.103C45.4743 30.3801 47.9767 28.7382 49.7637 26.436C51.5506 24.1339 52.5206 21.3024 52.5206 18.3881C52.5206 15.4738 51.5506 12.6424 49.7637 10.3402C47.9767 8.03809 45.4743 6.39616 42.6511 5.67329Z" fill="#FF6400"/>
</svg>
