<svg width="49" height="48" viewBox="0 0 49 48" fill="none" xmlns="http://www.w3.org/2000/svg">
<path fill-rule="evenodd" clip-rule="evenodd" d="M25.5311 8C17.0798 8 10.2285 14.7114 10.2285 22.9903C10.2285 25.3866 10.801 27.6461 11.8174 29.6501C12.0575 30.1236 12.0965 30.6709 11.9258 31.1725L9.33527 38.7854L17.1852 36.3058C17.6928 36.1455 18.2443 36.1861 18.7217 36.4189C20.7702 37.4179 23.0806 37.9806 25.5311 37.9806C33.9825 37.9806 40.8338 31.2692 40.8338 22.9903C40.8338 14.7114 33.9825 8 25.5311 8ZM6.14521 22.9903C6.14521 12.5023 14.8246 4 25.5311 4C36.2377 4 44.9171 12.5023 44.9171 22.9903C44.9171 33.4784 36.2377 41.9806 25.5311 41.9806C22.737 41.9806 20.0765 41.4004 17.6722 40.3548L6.74934 43.805C6.01677 44.0364 5.21361 43.8445 4.67202 43.3087C4.13043 42.7729 3.94247 41.9843 4.18589 41.269L7.79422 30.6652C6.7336 28.3162 6.14521 25.7183 6.14521 22.9903Z" fill="#2D3648"/>
</svg>
