<svg width="45" height="45" viewBox="0 0 45 45" fill="none" xmlns="http://www.w3.org/2000/svg">
<path d="M13.8751 24.75C14.7009 24.1306 15.8714 24.2955 16.4942 25.1172L16.5029 25.1283C16.5141 25.1424 16.5353 25.1688 16.5663 25.2057C16.6285 25.2798 16.7292 25.3953 16.8665 25.5386C17.1427 25.8268 17.5577 26.2178 18.0951 26.6086C19.1771 27.3955 20.673 28.125 22.5001 28.125C24.3272 28.125 25.8231 27.3955 26.9051 26.6086C27.4425 26.2178 27.8575 25.8268 28.1337 25.5386C28.271 25.3953 28.3717 25.2798 28.4339 25.2057C28.4649 25.1688 28.4861 25.1424 28.4973 25.1283L28.506 25.1172C29.1288 24.2955 30.2993 24.1306 31.1251 24.75C31.9535 25.3713 32.1214 26.5466 31.5001 27.375L30.0001 26.25C31.5001 27.375 31.5006 27.3744 31.5001 27.375L31.4982 27.3775L31.4961 27.3804L31.4909 27.3872L31.4774 27.4048L31.4375 27.4559C31.4051 27.4968 31.3613 27.5509 31.3063 27.6165C31.1964 27.7475 31.0407 27.925 30.8411 28.1333C30.4435 28.5482 29.8624 29.0947 29.1107 29.6414C27.6146 30.7295 25.3605 31.875 22.5001 31.875C19.6397 31.875 17.3856 30.7295 15.8895 29.6414C15.1378 29.0947 14.5567 28.5482 14.1591 28.1333C13.9595 27.925 13.8039 27.7475 13.6939 27.6165C13.6389 27.5509 13.5951 27.4968 13.5628 27.4559L13.5228 27.4048L13.5093 27.3872L13.5042 27.3804L13.502 27.3775C13.5015 27.3769 13.5001 27.375 15.0001 26.25L13.5001 27.375C12.8788 26.5466 13.0467 25.3713 13.8751 24.75Z" fill="#2D3648"/>
<path d="M15 16.875C15 15.8395 15.8395 15 16.875 15H16.8938C17.9293 15 18.7688 15.8395 18.7688 16.875C18.7688 17.9105 17.9293 18.75 16.8938 18.75H16.875C15.8395 18.75 15 17.9105 15 16.875Z" fill="#2D3648"/>
<path d="M28.125 15C27.0895 15 26.25 15.8395 26.25 16.875C26.25 17.9105 27.0895 18.75 28.125 18.75H28.1438C29.1793 18.75 30.0188 17.9105 30.0188 16.875C30.0188 15.8395 29.1793 15 28.1438 15H28.125Z" fill="#2D3648"/>
<path fill-rule="evenodd" clip-rule="evenodd" d="M22.5 1.875C11.1091 1.875 1.875 11.1091 1.875 22.5C1.875 33.8909 11.1091 43.125 22.5 43.125C33.8909 43.125 43.125 33.8909 43.125 22.5C43.125 11.1091 33.8909 1.875 22.5 1.875ZM5.625 22.5C5.625 13.1802 13.1802 5.625 22.5 5.625C31.8198 5.625 39.375 13.1802 39.375 22.5C39.375 31.8198 31.8198 39.375 22.5 39.375C13.1802 39.375 5.625 31.8198 5.625 22.5Z" fill="#2D3648"/>
</svg>
