<svg width="86" height="84" viewBox="0 0 86 84" fill="none" xmlns="http://www.w3.org/2000/svg">
<path fill-rule="evenodd" clip-rule="evenodd" d="M42.9766 25.0862C33.0869 25.0862 25.0697 34.4457 25.0697 45.9913C25.0697 57.5369 33.0869 66.8964 42.9766 66.8964C52.8664 66.8964 60.8836 57.5369 60.8836 45.9913C60.8836 34.4457 52.8664 25.0862 42.9766 25.0862ZM32.2325 45.9913C32.2325 39.0639 37.0428 33.4482 42.9766 33.4482C48.9105 33.4482 53.7208 39.0639 53.7208 45.9913C53.7208 52.9187 48.9105 58.5344 42.9766 58.5344C37.0428 58.5344 32.2325 52.9187 32.2325 45.9913Z" fill="#FF6400"/>
<path fill-rule="evenodd" clip-rule="evenodd" d="M32.2325 0C31.035 0 29.9168 0.698654 29.2526 1.86181L23.153 12.5431H10.7442C7.89463 12.5431 5.16181 13.8646 3.14689 16.2169C1.13197 18.5692 0 21.7595 0 25.0862V71.0775C0 74.4041 1.13197 77.5945 3.14689 79.9468C5.16181 82.299 7.89463 83.6205 10.7442 83.6205H75.2091C78.0586 83.6205 80.7915 82.299 82.8064 79.9468C84.8213 77.5945 85.9533 74.4041 85.9533 71.0775V25.0862C85.9533 21.7595 84.8213 18.5691 82.8064 16.2169C80.7914 13.8646 78.0586 12.5431 75.2091 12.5431H62.8003L56.7007 1.86181C56.0365 0.698654 54.9182 0 53.7208 0H32.2325ZM28.0496 19.0433L34.1492 8.36205H51.8041L57.9037 19.0433C58.5679 20.2065 59.6861 20.9051 60.8836 20.9051H75.2091C76.1589 20.9051 77.0699 21.3456 77.7415 22.1297C78.4132 22.9138 78.7905 23.9773 78.7905 25.0862V71.0775C78.7905 72.1863 78.4132 73.2498 77.7415 74.0339C77.0699 74.818 76.1589 75.2585 75.2091 75.2585H10.7442C9.79432 75.2585 8.88338 74.818 8.21174 74.0339C7.54009 73.2498 7.16277 72.1863 7.16277 71.0775V25.0862C7.16277 23.9773 7.5401 22.9138 8.21174 22.1297C8.88338 21.3456 9.79431 20.9051 10.7442 20.9051H25.0697C26.2671 20.9051 27.3854 20.2065 28.0496 19.0433Z" fill="#FF6400"/>
</svg>
