<svg width="45" height="45" viewBox="0 0 45 45" fill="none" xmlns="http://www.w3.org/2000/svg">
<path fill-rule="evenodd" clip-rule="evenodd" d="M19.7121 10.0546C16.3007 6.64324 10.7698 6.64324 7.35836 10.0546C3.94695 13.4661 3.94695 18.997 7.35836 22.4084L8.82031 23.8704C8.8442 23.8943 8.86739 23.9188 8.88985 23.9438L22.4999 37.5539L36.1094 23.9444C36.132 23.9192 36.1554 23.8946 36.1795 23.8704L37.6415 22.4084C41.0529 18.997 41.0529 13.4661 37.6415 10.0546C34.2301 6.64324 28.6991 6.64324 25.2877 10.0546L23.8257 11.5166C23.0935 12.2488 21.9063 12.2488 21.1741 11.5166L19.7121 10.0546ZM38.9032 26.45C38.8807 26.4751 38.8573 26.4998 38.8331 26.524L23.8277 41.5294C23.4759 41.8811 22.9988 42.0787 22.5014 42.0786C22.5009 42.0786 22.5019 42.0786 22.5014 42.0786C22.5009 42.0786 22.4989 42.0786 22.4984 42.0786C22.001 42.0787 21.5239 41.8811 21.1722 41.5294L6.16673 26.524C6.14255 26.4998 6.11916 26.4751 6.09658 26.45L4.70671 25.0601C-0.169159 20.1842 -0.169167 12.2789 4.70671 7.403C9.58257 2.52713 17.4879 2.52713 22.3638 7.403L22.4999 7.53912L22.636 7.403C27.5119 2.52713 35.4173 2.52713 40.2931 7.403C45.169 12.2789 45.169 20.1842 40.2931 25.0601L38.9032 26.45Z" fill="#2D3648"/>
</svg>
