<svg width="19" height="19" viewBox="0 0 19 19" fill="none" xmlns="http://www.w3.org/2000/svg">
<g clip-path="url(#clip0_520_2545)">
<path d="M18.7969 8.6875C18.7969 12.727 14.768 16 9.79694 16C8.49264 16 7.25514 15.775 6.13718 15.3707C5.71882 15.6766 5.03678 16.0949 4.22819 16.4465C3.38444 16.8121 2.36843 17.125 1.35944 17.125C1.13093 17.125 0.927019 16.9879 0.839129 16.777C0.751238 16.566 0.800457 16.327 0.95866 16.1652L0.969207 16.1547C0.979753 16.1441 0.993816 16.1301 1.01491 16.1055C1.05358 16.0633 1.11335 15.9965 1.18718 15.9051C1.33132 15.7293 1.52468 15.4691 1.72155 15.1457C2.07311 14.5621 2.4071 13.7957 2.47389 12.9344C1.41921 11.7391 0.796941 10.273 0.796941 8.6875C0.796941 4.64805 4.82585 1.375 9.79694 1.375C14.768 1.375 18.7969 4.64805 18.7969 8.6875Z" fill="#1F2937"/>
</g>
<defs>
<clipPath id="clip0_520_2545">
<path d="M0.796875 0.25H18.7969V18.25H0.796875V0.25Z" fill="white"/>
</clipPath>
</defs>
</svg>
