<svg width="50" height="50" viewBox="0 0 50 50" fill="none" xmlns="http://www.w3.org/2000/svg">
<path fill-rule="evenodd" clip-rule="evenodd" d="M40.1895 1.48199C37.1036 0.0855538 33.6654 -0.337261 30.3331 0.269892C27.0008 0.877045 23.9327 2.48533 21.5376 4.88041C19.1425 7.2755 17.5342 10.3436 16.9271 13.6759C16.4208 16.4549 16.6307 19.3075 17.5244 21.9681L2.17618 37.3163C0.782798 38.7097 0 40.5995 0 42.57C0 44.5406 0.782796 46.4304 2.17618 47.8238C3.56957 49.2172 5.45941 50 7.42996 50C9.40051 50 11.2903 49.2172 12.6837 47.8238L28.0319 32.4756C30.6924 33.3693 33.5451 33.5792 36.3241 33.0729C39.6564 32.4658 42.7245 30.8575 45.1196 28.4624C47.5147 26.0673 49.123 22.9992 49.7301 19.6669C50.3373 16.3346 49.9144 12.8964 48.518 9.81047C48.1959 9.09854 47.5448 8.59007 46.776 8.45C46.0072 8.30993 45.2187 8.5561 44.6661 9.10865L35.709 18.0658L31.9342 14.291L40.8914 5.33386C41.4439 4.78131 41.6901 3.99275 41.55 3.22398C41.4099 2.45521 40.9015 1.80415 40.1895 1.48199ZM31.1865 4.95356C32.3378 4.7438 33.5068 4.70615 34.6564 4.83606L28.5509 10.9415L28.5342 10.9585C27.6619 11.8484 27.1733 13.0449 27.1733 14.291C27.1733 15.5372 27.6619 16.7336 28.5342 17.6236L28.5509 17.6405L32.3595 21.4491L32.3764 21.4658C33.2664 22.3382 34.4628 22.8267 35.709 22.8267C36.9551 22.8267 38.1516 22.3382 39.0415 21.4658L39.0585 21.4491L45.1639 15.3436C45.2938 16.4932 45.2562 17.6622 45.0464 18.8135C44.6128 21.1937 43.464 23.3852 41.7532 25.096C40.0424 26.8068 37.8509 27.9556 35.4707 28.3892C33.0905 28.8229 30.6346 28.5209 28.4304 27.5235C27.5277 27.115 26.4664 27.3084 25.7659 28.0089L9.31736 44.4574C8.81679 44.958 8.13787 45.2392 7.42996 45.2392C6.72205 45.2392 6.04313 44.958 5.54256 44.4574C5.042 43.9569 4.76078 43.2779 4.76078 42.57C4.76078 41.8621 5.042 41.1832 5.54256 40.6826L21.9911 24.2342C22.6917 23.5336 22.885 22.4723 22.4765 21.5696C21.4791 19.3654 21.1771 16.9095 21.6108 14.5293C22.0444 12.1491 23.1932 9.95756 24.904 8.24679C26.6148 6.53602 28.8063 5.38724 31.1865 4.95356Z" fill="#FF6400"/>
</svg>
